<svg xmlns="http://www.w3.org/2000/svg" version="1.1" xmlns:xlink="http://www.w3.org/1999/xlink" xmlns:svgjs="http://svgjs.com/svgjs" width="1440" height="560" preserveAspectRatio="none" viewBox="0 0 1440 560"><g mask="url(&quot;#SvgjsMask1080&quot;)" fill="none"><rect width="1440" height="560" x="0" y="0" fill="rgba(25, 44, 93, 1)"></rect><path d="M1488 560L0 560 L0 178.41Q93.6 200.01, 72 293.62Q123.76 225.38, 192 277.14Q219.2 184.34, 312 211.54Q350.84 130.38, 432 169.21Q518.83 136.04, 552 222.87Q646.13 197, 672 291.14Q717.21 216.35, 792 261.56Q813.26 162.82, 912 184.09Q989.45 141.54, 1032 218.99Q1109.8 224.79, 1104 302.59Q1096.91 175.5, 1224 168.41Q1285.41 109.82, 1344 171.23Q1388.3 143.53, 1416 187.83Q1476.54 176.37, 1488 236.91z" fill="rgba(47, 75, 129, 1)"></path><path d="M1560 560L0 560 L0 331.94Q30.7 242.64, 120 273.34Q193.04 226.38, 240 299.41Q350.98 290.39, 360 401.38Q405.13 326.5, 480 371.63Q490.44 310.07, 552 320.51Q574.06 270.56, 624 292.62Q710.05 258.68, 744 344.73Q765.38 246.12, 864 267.5Q906.36 237.86, 936 280.22Q1028.5 300.73, 1008 393.23Q1006.24 271.47, 1128 269.71Q1173.13 242.83, 1200 287.96Q1317.34 285.3, 1320 402.64Q1343.55 306.19, 1440 329.73Q1493.05 262.78, 1560 315.83z" fill="rgba(64, 101, 163, 1)"></path><path d="M1512 560L0 560 L0 482.7Q29.1 391.8, 120 420.9Q157.49 338.39, 240 375.88Q307.32 323.2, 360 390.53Q474.58 385.11, 480 499.69Q491.78 439.47, 552 451.24Q578.5 357.75, 672 384.25Q715.9 356.15, 744 400.05Q844.48 380.53, 864 481.02Q882.37 427.38, 936 445.75Q968.59 358.34, 1056 390.92Q1106.23 321.15, 1176 371.39Q1253.42 328.81, 1296 406.24Q1359.32 397.56, 1368 460.87Q1414.52 435.39, 1440 481.91Q1454.18 424.1, 1512 438.28z" fill="rgba(162, 196, 239, 1)"></path><path d="M1536 560L0 560 L0 552.72Q8.59 489.31, 72 497.9Q137.4 443.3, 192 508.7Q263.94 508.64, 264 580.59Q306.2 502.79, 384 544.98Q398.62 487.6, 456 502.22Q531.02 457.24, 576 532.26Q602.71 486.97, 648 513.68Q688.79 434.47, 768 475.26Q817.63 452.89, 840 502.52Q901.94 492.46, 912 554.4Q928.75 499.15, 984 515.91Q1037.85 449.76, 1104 503.61Q1152.67 432.28, 1224 480.95Q1310.57 447.52, 1344 534.09Q1409.47 527.56, 1416 593.03Q1432.74 489.76, 1536 506.5z" fill="white"></path></g><defs><mask id="SvgjsMask1080"><rect width="1440" height="560" fill="#ffffff"></rect></mask></defs></svg>